<mxfile host="65bd71144e">
    <diagram id="lIAh5AcrBzU-dCauc5ZR" name="Page-1">
        <mxGraphModel dx="865" dy="505" grid="1" gridSize="10" guides="1" tooltips="1" connect="1" arrows="1" fold="1" page="1" pageScale="1" pageWidth="850" pageHeight="1100" math="0" shadow="0">
            <root>
                <mxCell id="0"/>
                <mxCell id="1" parent="0"/>
                <mxCell id="2" value="&lt;font style=&quot;font-size: 24px&quot;&gt;JavaScript&lt;/font&gt;" style="rounded=0;whiteSpace=wrap;html=1;fillColor=#f5f5f5;fontColor=#333333;strokeColor=#666666;" vertex="1" parent="1">
                    <mxGeometry x="310" y="10" width="180" height="60" as="geometry"/>
                </mxCell>
                <mxCell id="3" value="Intrepreted Language" style="text;html=1;align=center;verticalAlign=middle;resizable=0;points=[];autosize=1;strokeColor=none;fillColor=none;fontSize=24;" vertex="1" parent="1">
                    <mxGeometry x="75" y="115" width="250" height="30" as="geometry"/>
                </mxCell>
                <mxCell id="4" value="Executes inside Browser&lt;br&gt;&lt;br&gt;But using &lt;b&gt;Node.js&lt;/b&gt; JavaScript programs can be used to develop server side Apps" style="text;html=1;align=center;verticalAlign=middle;resizable=0;points=[];autosize=1;strokeColor=none;fillColor=none;fontSize=24;" vertex="1" parent="1">
                    <mxGeometry x="20" y="200" width="870" height="90" as="geometry"/>
                </mxCell>
                <mxCell id="5" value="OOP Language&lt;br&gt;&lt;br&gt;Object Based Progamming language" style="text;html=1;align=center;verticalAlign=middle;resizable=0;points=[];autosize=1;strokeColor=#d6b656;fillColor=#fff2cc;fontSize=24;" vertex="1" parent="1">
                    <mxGeometry x="60" y="340" width="410" height="90" as="geometry"/>
                </mxCell>
                <mxCell id="6" value="Used for developing interactive web pages" style="text;html=1;align=center;verticalAlign=middle;resizable=0;points=[];autosize=1;strokeColor=#d6b656;fillColor=#fff2cc;fontSize=24;" vertex="1" parent="1">
                    <mxGeometry x="220" y="160" width="470" height="30" as="geometry"/>
                </mxCell>
                <mxCell id="7" value="Loosely Typed Language" style="text;html=1;align=center;verticalAlign=middle;resizable=0;points=[];autosize=1;strokeColor=#d6b656;fillColor=#fff2cc;fontSize=24;" vertex="1" parent="1">
                    <mxGeometry x="115" y="490" width="280" height="30" as="geometry"/>
                </mxCell>
            </root>
        </mxGraphModel>
    </diagram>
</mxfile>